<svg xmlns="http://www.w3.org/2000/svg" xmlns:xlink="http://www.w3.org/1999/xlink" width="2000" zoomAndPan="magnify" viewBox="0 0 1500 1499.999933" height="2000" preserveAspectRatio="xMidYMid meet" version="1.0"><defs><g/><clipPath id="2488ab69ed"><path d="M 507.273438 301.675781 L 992.523438 301.675781 L 992.523438 901.675781 L 507.273438 901.675781 Z M 507.273438 301.675781 " clip-rule="nonzero"/></clipPath><clipPath id="3a7259dc4f"><rect x="0" width="819" y="0" height="191"/></clipPath></defs><g clip-path="url(#2488ab69ed)"><path fill="#000000" d="M 850.324219 301.675781 C 812.367188 301.675781 776.695312 316.457031 749.859375 343.292969 C 723.027344 370.128906 708.242188 405.800781 708.242188 443.757812 L 708.242188 731.542969 C 708.242188 751.414062 692.070312 767.585938 672.199219 767.585938 C 652.328125 767.585938 636.152344 751.414062 636.152344 731.542969 L 636.152344 430.699219 C 636.167969 359.6875 578.597656 302.121094 507.589844 302.121094 L 507.589844 659.316406 C 507.589844 793.191406 616.121094 901.722656 749.996094 901.722656 C 883.875 901.722656 992.40625 793.191406 992.40625 659.316406 L 992.40625 302.121094 Z M 749.996094 831.496094 C 716.621094 831.496094 686.609375 817.136719 665.792969 794.261719 C 667.902344 794.472656 670.039062 794.582031 672.210938 794.582031 C 706.976562 794.582031 735.265625 766.296875 735.265625 731.53125 L 735.265625 443.757812 C 735.265625 384.875 779.722656 336.179688 836.832031 329.476562 L 863.839844 329.476562 L 863.839844 717.679688 C 863.828125 780.53125 812.863281 831.496094 749.996094 831.496094 Z M 749.996094 831.496094 " fill-opacity="1" fill-rule="nonzero"/></g><g transform="matrix(1, 0, 0, 1, 349, 946)"><g clip-path="url(#3a7259dc4f)"><g fill="#000000" fill-opacity="1"><g transform="translate(2.702951, 137.726152)"><g><path d="M 48.671875 1.84375 C 40.691406 1.84375 33.828125 0.242188 28.078125 -2.953125 C 22.335938 -6.160156 17.910156 -10.722656 14.796875 -16.640625 C 11.679688 -22.554688 10.125 -29.640625 10.125 -37.890625 L 10.125 -92.09375 L 31.046875 -92.09375 L 31.046875 -39.34375 C 31.046875 -25.132812 36.921875 -18.03125 48.671875 -18.03125 C 60.429688 -18.03125 66.3125 -25.132812 66.3125 -39.34375 L 66.3125 -92.09375 L 87.21875 -92.09375 L 87.21875 -37.890625 C 87.21875 -29.640625 85.660156 -22.554688 82.546875 -16.640625 C 79.441406 -10.722656 75.015625 -6.160156 69.265625 -2.953125 C 63.523438 0.242188 56.660156 1.84375 48.671875 1.84375 Z M 48.671875 1.84375 "/></g></g></g><g fill="#000000" fill-opacity="1"><g transform="translate(118.085635, 137.726152)"><g><path d="M 11.046875 0 L 11.046875 -92.09375 L 28.8125 -92.09375 L 69.46875 -36.046875 L 69.46875 -92.09375 L 90.25 -92.09375 L 90.25 0 L 72.484375 0 L 31.84375 -56.4375 L 31.84375 0 Z M 11.046875 0 "/></g></g></g><g fill="#000000" fill-opacity="1"><g transform="translate(237.41523, 137.726152)"><g><path d="M 11.046875 0 L 11.046875 -92.09375 L 31.96875 -92.09375 L 31.96875 -19.609375 L 72.234375 -19.609375 L 72.234375 0 Z M 11.046875 0 "/></g></g></g><g fill="#000000" fill-opacity="1"><g transform="translate(331.221689, 137.726152)"><g><path d="M 11.046875 0 L 11.046875 -92.09375 L 31.96875 -92.09375 L 31.96875 0 Z M 11.046875 0 "/></g></g></g><g fill="#000000" fill-opacity="1"><g transform="translate(392.26907, 137.726152)"><g><path d="M 43.15625 1.84375 C 35.4375 1.84375 28.789062 0.570312 23.21875 -1.96875 C 17.644531 -4.507812 13.34375 -8.125 10.3125 -12.8125 C 7.289062 -17.507812 5.78125 -23.019531 5.78125 -29.34375 L 26.3125 -29.34375 C 26.3125 -24.957031 27.820312 -21.535156 30.84375 -19.078125 C 33.875 -16.617188 37.929688 -15.390625 43.015625 -15.390625 C 47.398438 -15.390625 50.863281 -16.242188 53.40625 -17.953125 C 55.957031 -19.671875 57.234375 -22.0625 57.234375 -25.125 C 57.234375 -28.375 55.695312 -31.003906 52.625 -33.015625 C 49.550781 -35.035156 44.769531 -36.75 38.28125 -38.15625 C 27.5 -40.4375 19.519531 -43.898438 14.34375 -48.546875 C 9.164062 -53.191406 6.578125 -59.242188 6.578125 -66.703125 C 6.578125 -75.117188 9.644531 -81.757812 15.78125 -86.625 C 21.925781 -91.5 30.304688 -93.9375 40.921875 -93.9375 C 48.191406 -93.9375 54.503906 -92.6875 59.859375 -90.1875 C 65.210938 -87.6875 69.359375 -84.175781 72.296875 -79.65625 C 75.234375 -75.144531 76.703125 -69.773438 76.703125 -63.546875 L 56.578125 -63.546875 C 56.578125 -67.671875 55.21875 -70.914062 52.5 -73.28125 C 49.78125 -75.644531 46.003906 -76.828125 41.171875 -76.828125 C 36.785156 -76.828125 33.320312 -75.972656 30.78125 -74.265625 C 28.238281 -72.554688 26.96875 -70.164062 26.96875 -67.09375 C 26.96875 -64.289062 28.367188 -61.921875 31.171875 -59.984375 C 33.984375 -58.054688 38.898438 -56.257812 45.921875 -54.59375 C 57.410156 -51.875 65.695312 -48.234375 70.78125 -43.671875 C 75.863281 -39.117188 78.40625 -33.203125 78.40625 -25.921875 C 78.40625 -17.234375 75.269531 -10.429688 69 -5.515625 C 62.726562 -0.609375 54.113281 1.84375 43.15625 1.84375 Z M 43.15625 1.84375 "/></g></g></g><g fill="#000000" fill-opacity="1"><g transform="translate(494.627069, 137.726152)"><g><path d="M 33.15625 0 L 33.15625 -72.484375 L 3.953125 -72.484375 L 3.953125 -92.09375 L 83.28125 -92.09375 L 83.28125 -72.484375 L 54.078125 -72.484375 L 54.078125 0 Z M 33.15625 0 "/></g></g></g><g fill="#000000" fill-opacity="1"><g transform="translate(599.879466, 137.726152)"><g><path d="M 11.046875 0 L 11.046875 -92.09375 L 71.5625 -92.09375 L 71.5625 -74.46875 L 31.84375 -74.46875 L 31.84375 -55.390625 L 68.015625 -55.390625 L 68.015625 -37.890625 L 31.84375 -37.890625 L 31.84375 -17.765625 L 73.015625 -17.765625 L 73.015625 0 Z M 11.046875 0 "/></g></g></g><g fill="#000000" fill-opacity="1"><g transform="translate(697.63278, 137.726152)"><g><path d="M 11.046875 0 L 11.046875 -92.09375 L 47.5 -92.09375 C 57.226562 -92.09375 65.734375 -90.160156 73.015625 -86.296875 C 80.296875 -82.441406 85.953125 -77.050781 89.984375 -70.125 C 94.023438 -63.195312 96.046875 -55.171875 96.046875 -46.046875 C 96.046875 -36.835938 94.023438 -28.789062 89.984375 -21.90625 C 85.953125 -15.019531 80.296875 -9.644531 73.015625 -5.78125 C 65.734375 -1.925781 57.226562 0 47.5 0 Z M 31.96875 -19.203125 L 47.09375 -19.203125 C 52.53125 -19.203125 57.3125 -20.320312 61.4375 -22.5625 C 65.5625 -24.800781 68.785156 -27.9375 71.109375 -31.96875 C 73.429688 -36 74.59375 -40.691406 74.59375 -46.046875 C 74.59375 -51.484375 73.429688 -56.195312 71.109375 -60.1875 C 68.785156 -64.175781 65.539062 -67.289062 61.375 -69.53125 C 57.207031 -71.769531 52.363281 -72.890625 46.84375 -72.890625 L 31.96875 -72.890625 Z M 31.96875 -19.203125 "/></g></g></g></g></g></svg>